<?xml version="1.0" standalone="no"?>
<svg version="1.0" xmlns="http://www.w3.org/2000/svg"
 width="248.000000pt" height="248.000000pt" viewBox="0 0 248.000000 248.000000"
 preserveAspectRatio="xMidYMid meet">
<metadata>
Created by potrace 1.14, written by Peter Selinger 2001-2017
</metadata>
<g transform="translate(120.000000,360.000000) scale(0.130000,-0.130000) rotate(45)"
fill="#15204e" stroke="none">
<path d="M654 1610 c-117 -25 -242 -128 -284 -235 -31 -79 -34 -206 -6 -281
61 -163 218 -264 392 -251 159 12 301 125 345 275 l12 42 204 0 203 0 0 -75 0
-75 70 0 70 0 0 75 0 75 45 0 45 0 0 -130 0 -130 70 0 70 0 0 130 0 130 99 0
99 0 7 59 c4 33 4 65 0 70 -4 8 -163 11 -494 11 l-488 0 -12 43 c-31 104 -128
210 -228 247 -65 24 -159 33 -219 20z m201 -179 c58 -33 110 -108 121 -177 15
-99 -44 -211 -133 -255 -72 -36 -171 -34 -236 4 -114 67 -157 210 -97 326 34
68 98 114 185 134 39 9 111 -5 160 -32z"/>
</g>
</svg>
