<?xml version="1.0" standalone="no"?>
<!DOCTYPE svg PUBLIC "-//W3C//DTD SVG 20010904//EN"
 "http://www.w3.org/TR/2001/REC-SVG-20010904/DTD/svg10.dtd">
<svg version="1.0" xmlns="http://www.w3.org/2000/svg"
 width="248.000000pt" height="248.000000pt" viewBox="0 0 248.000000 248.000000"
 preserveAspectRatio="xMidYMid meet">
<metadata>
Created by potrace 1.14, written by Peter Selinger 2001-2017
</metadata>
<g transform="translate(-10.000000,295.00000) scale(0.12000,-0.12000)"
fill="#15204e" stroke="none">
<path d="M983 1960 c-220 -40 -401 -206 -458 -420 -24 -89 -19 -235 10 -327
43 -135 138 -254 260 -324 134 -78 320 -96 468 -46 42 15 96 39 118 53 l41 26
27 -26 c15 -14 32 -26 37 -26 12 0 114 102 114 115 0 5 -12 21 -26 36 l-25 26
31 49 c91 144 103 373 27 537 -69 150 -212 271 -367 312 -72 19 -192 26 -257
15z m202 -145 c128 -34 231 -118 291 -240 83 -169 46 -364 -97 -500 -140 -134
-328 -159 -502 -68 -160 84 -256 272 -227 444 44 258 292 427 535 364z"/>
<path d="M1124 1460 l-109 -130 -57 57 -58 58 -42 -43 -43 -42 100 -100 c55
-55 103 -100 107 -100 5 0 225 255 287 333 12 15 11 20 -5 38 -11 12 -31 29
-45 40 l-26 18 -109 -129z"/>
<path d="M1607 872 c-31 -32 -57 -62 -57 -67 0 -6 70 -80 155 -165 l155 -155
62 63 63 62 -160 160 -160 160 -58 -58z"/>
</g>
</svg>
