<?xml version="1.0" standalone="no"?>
<!DOCTYPE svg PUBLIC "-//W3C//DTD SVG 20010904//EN"
 "http://www.w3.org/TR/2001/REC-SVG-20010904/DTD/svg10.dtd">
<svg version="1.0" xmlns="http://www.w3.org/2000/svg"
 width="248.000000pt" height="248.000000pt" viewBox="0 0 248.000000 248.000000"
 preserveAspectRatio="xMidYMid meet">
<metadata>
Created by potrace 1.14, written by Peter Selinger 2001-2017
</metadata>
<g transform="translate(-25.000000,290.000000) scale(0.12000,-0.11000)"
fill="#15204e" stroke="none">
<path d="M1170 1940 l0 -59 -42 -12 c-258 -69 -364 -360 -198 -542 61 -67 137
-108 291 -158 178 -57 257 -119 274 -212 16 -83 -48 -193 -139 -239 -91 -47
-249 -30 -321 34 -42 37 -57 61 -64 108 -6 35 -7 35 -64 38 -57 3 -57 3 -57
-26 0 -55 30 -129 70 -175 46 -52 138 -103 206 -113 l44 -6 0 -59 0 -59 60 0
60 0 0 59 0 59 37 7 c93 17 199 97 248 187 24 44 30 68 33 139 5 109 -17 166
-92 238 -65 61 -119 88 -270 136 -198 64 -278 135 -278 246 2 138 148 253 300
235 117 -14 201 -74 224 -162 l12 -44 53 0 53 0 0 43 c0 123 -125 243 -283
272 l-37 7 0 59 0 59 -60 0 -60 0 0 -60z"/>
<path d="M540 1498 c0 -16 -11 -28 -33 -38 -43 -20 -77 -73 -77 -122 0 -76 40
-118 148 -153 62 -20 90 -52 72 -84 -25 -47 -97 -56 -128 -16 -15 18 -29 25
-56 25 -31 0 -36 -3 -36 -24 0 -31 41 -80 80 -96 18 -8 30 -20 30 -31 0 -15 8
-19 40 -19 32 0 40 4 40 19 0 11 12 23 30 31 67 28 103 106 80 174 -14 43 -57
78 -125 100 -68 22 -95 42 -95 71 0 26 42 65 71 65 29 0 68 -22 74 -42 8 -24
85 -27 85 -2 0 38 -33 84 -76 104 -29 15 -44 28 -44 41 0 16 -7 19 -40 19 -35
0 -40 -3 -40 -22z"/>
<path d="M1840 1496 c0 -17 -7 -26 -24 -30 -13 -3 -38 -22 -55 -41 -27 -31
-31 -43 -31 -91 0 -50 4 -60 33 -88 20 -21 57 -41 100 -55 93 -31 119 -78 64
-116 -40 -28 -117 -11 -117 26 0 5 -18 9 -40 9 -36 0 -40 -3 -40 -25 0 -30 52
-91 85 -99 16 -4 25 -13 25 -26 0 -17 7 -20 40 -20 32 0 40 4 40 19 0 11 12
23 31 31 35 15 73 62 83 103 18 75 -31 139 -129 171 -68 22 -95 42 -95 71 0
29 43 65 77 65 15 0 37 -12 53 -30 21 -23 37 -30 65 -30 35 0 37 1 31 28 -10
41 -38 75 -79 95 -23 12 -37 26 -37 38 0 16 -7 19 -40 19 -36 0 -40 -3 -40
-24z"/>
</g>
</svg>
