<?xml version="1.0" standalone="no"?>
<!DOCTYPE svg PUBLIC "-//W3C//DTD SVG 20010904//EN"
 "http://www.w3.org/TR/2001/REC-SVG-20010904/DTD/svg10.dtd">
<svg version="1.0" xmlns="http://www.w3.org/2000/svg"
 width="248.000000pt" height="248.000000pt" viewBox="0 0 248.000000 248.000000"
 preserveAspectRatio="xMidYMid meet">
<metadata>
Created by potrace 1.14, written by Peter Selinger 2001-2017
</metadata>
<g transform="translate(0.000000,270.000000) scale(0.099900,-0.099900)"
fill="#15204e" stroke="none">
<path d="M1150 2191 c-199 -61 -276 -295 -149 -453 l30 -37 -28 -7 c-50 -12
-135 -53 -196 -95 -51 -35 -61 -39 -74 -27 -12 13 -12 16 2 28 14 12 11 19
-32 62 l-47 48 -78 -77 -78 -77 47 -48 c42 -43 48 -46 63 -33 15 14 19 14 29
1 10 -12 7 -23 -19 -61 -95 -138 -134 -278 -127 -455 8 -201 70 -343 212 -485
91 -91 175 -144 290 -182 71 -24 96 -27 220 -27 120 -1 151 2 215 22 129 41
206 88 306 187 149 148 215 305 215 516 1 160 -42 304 -126 421 -29 40 -34 52
-24 64 10 13 14 13 29 -1 15 -13 21 -10 65 35 l50 50 -78 78 -77 77 -47 -48
c-42 -41 -46 -49 -36 -66 10 -15 9 -22 -1 -30 -11 -9 -27 -2 -73 29 -33 23
-96 56 -141 74 l-82 33 22 19 c67 60 89 213 44 309 -55 119 -207 192 -326 156z
m156 -117 c53 -26 94 -94 94 -159 0 -59 -34 -121 -81 -149 l-29 -17 0 50 c0
44 3 51 20 51 18 0 20 7 20 65 l0 65 -110 0 -110 0 0 -65 c0 -63 1 -65 25 -65
23 0 25 -3 25 -50 0 -27 -4 -50 -9 -50 -19 0 -72 53 -91 91 -48 94 0 206 106
245 45 16 88 13 140 -12z m99 -525 c143 -47 280 -168 345 -305 138 -288 20
-635 -265 -775 -178 -88 -349 -89 -523 -3 -199 98 -326 302 -326 524 0 161 50
283 167 406 85 90 202 154 327 178 57 11 206 -3 275 -25z"/>
<path d="M875 1350 l-39 -40 202 -203 202 -202 42 43 43 42 -200 200 c-110
110 -202 200 -205 200 -3 0 -24 -18 -45 -40z"/>
</g>
</svg>
